<?xml version="1.0" encoding="UTF-8"?> <svg xmlns="http://www.w3.org/2000/svg" width="35.8" height="35.794" viewBox="0 0 35.8 35.794"><g id="_021---Gears-Cutting" data-name="021---Gears-Cutting" transform="translate(0)"><path id="Shape" d="M22.944,34.888A3.944,3.944,0,1,0,19,30.944,3.944,3.944,0,0,0,22.944,34.888Zm0-6.674a2.73,2.73,0,1,1-2.73,2.73A2.73,2.73,0,0,1,22.944,28.214Z" transform="translate(-7.472 -10.617)" fill="#fb1c1d"></path><path id="Shape-2" data-name="Shape" d="M1.492,19.985A1.82,1.82,0,0,0,0,21.805V25.24a1.82,1.82,0,0,0,1.493,1.82l3.55.643c.036.1.079.194.121.285L3.107,30.895a1.82,1.82,0,0,0,.212,2.324l2.427,2.427a1.82,1.82,0,0,0,2.324.206L11.037,33.8l.285.121.643,3.55a1.82,1.82,0,0,0,1.82,1.493H17.22a1.82,1.82,0,0,0,1.82-1.493l.643-3.55.285-.121,2.967,2.057a1.82,1.82,0,0,0,2.324-.212l1.954-1.948a.609.609,0,0,0-.837-.886L24.4,34.784a.607.607,0,0,1-.771.073L21.2,33.17a11.092,11.092,0,0,0,3.531-3.307.608.608,0,1,0-1.007-.68,10.012,10.012,0,1,1-5.673-15.339.608.608,0,0,0,.3-1.177,11.425,11.425,0,0,0-5.722,0l.522-2.906a.607.607,0,0,1,.607-.5h2.014a.607.607,0,1,0,0-1.214H13.755a1.82,1.82,0,0,0-1.82,1.493l-.643,3.55-.285.121L8.07,11.126a1.82,1.82,0,0,0-2.324.212L3.319,13.766a1.82,1.82,0,0,0-.206,2.324L5.17,19.057c-.042.091-.085.188-.121.285Zm-.279,5.224V21.775a.607.607,0,0,1,.5-.607l2.9-.522a11.256,11.256,0,0,0,0,5.679l-2.9-.522a.607.607,0,0,1-.5-.595Zm17.1,9.144-.522,2.9a.607.607,0,0,1-.607.5H13.755a.607.607,0,0,1-.607-.5l-.522-2.9A11.189,11.189,0,0,0,18.312,34.353ZM9.817,33.182,7.39,34.863A.607.607,0,0,1,6.62,34.8L4.193,32.369A.607.607,0,0,1,4.12,31.6L5.8,29.171a11.243,11.243,0,0,0,4.011,4.011ZM4.168,14.627,6.6,12.2a.607.607,0,0,1,.771-.073l2.427,1.681a11.243,11.243,0,0,0-4.029,4.029L4.083,15.41a.607.607,0,0,1,.085-.783Z" transform="translate(0 -3.165)" fill="#333b48"></path><path id="Shape-3" data-name="Shape" d="M45.989,0H30.213A1.214,1.214,0,0,0,29,1.214V6.674a1.165,1.165,0,0,0,.607,1.038,1.311,1.311,0,0,0,.813.176c1.741,4.363,1.341,3.349,1.96,4.891a1.214,1.214,0,0,0-.953,1.177v1.82a1.214,1.214,0,0,0,1.214,1.214h.607v1.82a1.214,1.214,0,0,0,1.214,1.214h.607v3.641a.607.607,0,0,0,.243.485l2.184,1.638v2.124a.607.607,0,1,0,1.214,0V25.788l2.184-1.638a.607.607,0,0,0,.243-.485V20.023h.607a1.214,1.214,0,0,0,1.214-1.214V16.99h.607a1.214,1.214,0,0,0,1.214-1.214v-1.82a1.214,1.214,0,0,0-.94-1.177L45.8,7.888h.194A1.214,1.214,0,0,0,47.2,6.674V1.214A1.214,1.214,0,0,0,45.989,0ZM39.922,23.361,38.1,24.726l-1.82-1.365V20.023h3.641Zm3.641-7.585H38.1a.607.607,0,0,0,0,1.214h3.641v1.82H34.461V16.99h1.214a.607.607,0,1,0,0-1.214H32.641v-1.82H43.562Zm-1.019-3.034H33.66L31.718,7.888H44.46Zm3.446-6.068H30.213V1.214H45.989Z" transform="translate(-11.404)" fill="#333b48"></path><path id="Shape-4" data-name="Shape" d="M33.607,5.214H34.82A.607.607,0,0,0,34.82,4H33.607a.607.607,0,0,0,0,1.214Z" transform="translate(-12.977 -1.573)" fill="#333b48"></path><path id="Shape-5" data-name="Shape" d="M39.607,5.214H48.1A.607.607,0,0,0,48.1,4H39.607a.607.607,0,0,0,0,1.214Z" transform="translate(-15.336 -1.573)" fill="#333b48"></path></g></svg> 