<?xml version="1.0" encoding="UTF-8"?> <svg xmlns="http://www.w3.org/2000/svg" id="double-door" width="35.855" height="35.855" viewBox="0 0 35.855 35.855"><g id="Сгруппировать_38" data-name="Сгруппировать 38" transform="translate(0 34.66)"><g id="Сгруппировать_37" data-name="Сгруппировать 37"><path id="Контур_15" data-name="Контур 15" d="M35.258,494.933H.6a.6.6,0,0,0,0,1.2h34.66a.6.6,0,0,0,0-1.2Z" transform="translate(0 -494.933)" fill="#333b48"></path></g></g><g id="Сгруппировать_40" data-name="Сгруппировать 40" transform="translate(1.793 5.976)"><g id="Сгруппировать_39" data-name="Сгруппировать 39"><path id="Контур_16" data-name="Контур 16" d="M41.735,85.333H26.2a.6.6,0,0,0-.6.6v28.684a.6.6,0,0,0,.6.6H41.735a.6.6,0,0,0,.6-.6V85.931A.6.6,0,0,0,41.735,85.333Zm-.6,28.684H26.8V86.528H41.137Z" transform="translate(-25.6 -85.333)" fill="#333b48"></path></g></g><g id="Сгруппировать_42" data-name="Сгруппировать 42" transform="translate(17.33 5.976)"><g id="Сгруппировать_41" data-name="Сгруппировать 41"><path id="Контур_17" data-name="Контур 17" d="M263.6,85.333H248.065a.6.6,0,0,0-.6.6v28.684a.6.6,0,0,0,.6.6H263.6a.6.6,0,0,0,.6-.6V85.931A.6.6,0,0,0,263.6,85.333Zm-.6,28.684H248.662V86.528H263Z" transform="translate(-247.467 -85.333)" fill="#333b48"></path></g></g><g id="Сгруппировать_44" data-name="Сгруппировать 44" transform="translate(1.793)"><g id="Сгруппировать_43" data-name="Сгруппировать 43"><path id="Контур_18" data-name="Контур 18" d="M57.272,0H26.2a.6.6,0,0,0-.6.6V6.573a.6.6,0,0,0,.6.6H57.272a.6.6,0,0,0,.6-.6V.6A.6.6,0,0,0,57.272,0Zm-.6,5.976H26.8V1.2H56.674V5.976Z" transform="translate(-25.6)" fill="#333b48"></path></g></g><g id="Сгруппировать_46" data-name="Сгруппировать 46" transform="translate(8.366)"><g id="Сгруппировать_45" data-name="Сгруппировать 45"><path id="Контур_19" data-name="Контур 19" d="M137.992,0H120.065a.6.6,0,0,0-.6.6V6.573a.6.6,0,0,0,.6.6h17.928a.6.6,0,0,0,.6-.6V.6A.6.6,0,0,0,137.992,0Zm-.6,5.976H120.662V1.2h16.732V5.976Z" transform="translate(-119.467)" fill="#fb1c1d"></path></g></g></svg> 