<?xml version="1.0" encoding="UTF-8"?> <svg xmlns="http://www.w3.org/2000/svg" width="36.959" height="36.973" viewBox="0 0 36.959 36.973"><path id="icons8-led_bulb" d="M32.4,1.99a1.383,1.383,0,0,0-.951.419L28.777,5.081a3.919,3.919,0,0,0-3.671.9L5.982,25.11a3.921,3.921,0,0,0-.9,3.671L2.405,31.453a1.383,1.383,0,1,0,1.956,1.956l2.026-2.026L8.58,33.576,6.554,35.6A1.383,1.383,0,1,0,8.51,37.558l2.671-2.672a3.921,3.921,0,0,0,3.671-.9L33.977,14.856a3.92,3.92,0,0,0,.9-3.671l2.672-2.672A1.383,1.383,0,1,0,35.6,6.558L33.572,8.584,31.379,6.391,33.4,4.365a1.383,1.383,0,0,0-1-2.374ZM28.04,7.525a1.381,1.381,0,0,1,.978.416l3,3a1.363,1.363,0,0,1,0,1.956L12.9,32.025a1.362,1.362,0,0,1-1.956,0l-3-3a1.362,1.362,0,0,1,0-1.956L27.062,7.941A1.381,1.381,0,0,1,28.04,7.525Zm-1.145,4.16a1.383,1.383,0,1,0,1.383,1.383A1.383,1.383,0,0,0,26.895,11.685Zm-4.149,4.149a1.383,1.383,0,1,0,1.383,1.383A1.383,1.383,0,0,0,22.745,15.834Zm-5.532,5.532A1.383,1.383,0,1,0,18.6,22.749,1.383,1.383,0,0,0,17.213,21.366Zm-4.149,4.149A1.383,1.383,0,1,0,14.447,26.9,1.383,1.383,0,0,0,13.064,25.515Z" transform="translate(-1.5 -1.49)" fill="#333b48" stroke="#f2f5f8" stroke-width="1"></path></svg> 