<?xml version="1.0" encoding="UTF-8"?> <svg xmlns="http://www.w3.org/2000/svg" width="36" height="35.985" viewBox="0 0 36 35.985"><g id="Сгруппировать_49" data-name="Сгруппировать 49" transform="translate(-209.782 -714.849)"><path id="lift" d="M245.782,717.662v-2.813h-36v2.813h9.24l6.6,5.414-8.829,7.27a1.511,1.511,0,0,0,0,2.334l8.826,7.269-6.426,5.275h-1.211a4.219,4.219,0,1,0,0,2.813h19.6a4.219,4.219,0,1,0,0-2.812h-1.139l-6.4-5.269,9.171-7.525a1.188,1.188,0,0,0,0-1.835l-9.167-7.525,6.567-5.409ZM214,748.037a1.406,1.406,0,0,1,0-2.812A1.406,1.406,0,0,1,214,748.037Zm27.563-2.812a1.406,1.406,0,0,1,0,2.812,1.406,1.406,0,0,1,0-2.812Zm-9.544,0h-8.394l4.2-3.45Zm3.882-13.711-8.067,6.62-8.036-6.62,8.036-6.62Zm-8.071-10.265-4.376-3.587h8.735Z" fill="#333b48"></path><rect id="Прямоугольник_32" data-name="Прямоугольник 32" width="36" height="2.813" transform="translate(209.782 714.849)" fill="#fb1c1d"></rect></g></svg> 