<?xml version="1.0" encoding="UTF-8"?> <svg xmlns="http://www.w3.org/2000/svg" width="37.199" height="37.201" viewBox="0 0 37.199 37.201"><g id="Сгруппировать_31" data-name="Сгруппировать 31" transform="translate(-422.089 -433.578)"><path id="Контур_8" data-name="Контур 8" d="M458.656,464.05l-2.078-18a5.516,5.516,0,0,0-5.465-4.871h-5.852a5.3,5.3,0,0,0,.428-2,5.09,5.09,0,0,0-1.254-3.4,5.185,5.185,0,0,0-7.492,0,5.091,5.091,0,0,0-1.254,3.4,5.278,5.278,0,0,0,.428,2h-5.85a5.519,5.519,0,0,0-5.465,4.869l-2.076,18a5.529,5.529,0,0,0,4.894,6.1,5.406,5.406,0,0,0,.569.033h25a5.529,5.529,0,0,0,5.5-5.56A5.405,5.405,0,0,0,458.656,464.05Zm-19.467-26.281a2.2,2.2,0,0,1,3,0,2.253,2.253,0,0,1,0,2.82,2.2,2.2,0,0,1-3,0A2.253,2.253,0,0,1,439.189,437.769Zm14.339,29.391a2.566,2.566,0,0,1-.339.019h-25a2.47,2.47,0,0,1-2.484-2.785l2.076-18a2.485,2.485,0,0,1,2.486-2.215h20.846a2.481,2.481,0,0,1,2.482,2.215l2.078,18A2.476,2.476,0,0,1,453.528,467.16Z" fill="#252d38" stroke="#eef2f6" stroke-width="1.2"></path><path id="Контур_9" data-name="Контур 9" d="M432.982,450.179a1.25,1.25,0,0,0-1.25,1.25v9.5a1.25,1.25,0,0,0,2.5,0v-3l3.257,3.813a1.25,1.25,0,0,0,1.9-1.625h0l-3.368-3.938,3.368-3.937a1.25,1.25,0,1,0-1.9-1.625l-3.258,3.809v-3A1.25,1.25,0,0,0,432.982,450.179Z" fill="#dd141f" stroke="#eef2f6" stroke-width="1.2"></path><path id="Контур_10" data-name="Контур 10" d="M445.664,450.179c-2.743,0-4.975,2.691-4.975,6s2.232,6,4.975,6a4.419,4.419,0,0,0,3.887-2.262,1.243,1.243,0,0,0,.139-.57v-2.418a1.25,1.25,0,0,0-1.25-1.25h-1.5a1.25,1.25,0,1,0,0,2.5h.25v.793a1.933,1.933,0,0,1-1.525.707c-1.341,0-2.475-1.6-2.475-3.5s1.134-3.5,2.475-3.5a1.919,1.919,0,0,1,1.66.9,1.249,1.249,0,0,0,2.133-1.3A4.414,4.414,0,0,0,445.664,450.179Z" fill="#dd141f" stroke="#eef2f6" stroke-width="1.2"></path></g></svg> 