<?xml version="1.0" encoding="UTF-8"?> <svg xmlns="http://www.w3.org/2000/svg" width="36.446" height="27.736" viewBox="0 0 36.446 27.736"><g id="Сгруппировать_30" data-name="Сгруппировать 30" transform="translate(-279.777 -407.076)"><path id="Контур_5" data-name="Контур 5" d="M297.994,407.076a.839.839,0,0,0-.15.016,18.129,18.129,0,0,0-9.108,2.53.96.96,0,0,0-.186.108,18.332,18.332,0,0,0-6.507,6.8.767.767,0,0,0-.1.179,18.085,18.085,0,0,0-2.149,8.43.746.746,0,0,0,0,.312,17.179,17.179,0,0,0,2.484,8.979.793.793,0,0,0,1.469-.47l.037.486,2.976-1.724a.778.778,0,0,0,.411-.687.794.794,0,0,0-1.206-.684l-2.642,1.532a15.462,15.462,0,0,1-1.923-6.791h3.142a.792.792,0,1,0,0-1.584H281.4a16.555,16.555,0,0,1,1.633-6.416c.445.241,1.157.625,2.756,1.494a.793.793,0,0,0,.807-1.365l-.053-.029c-1.6-.866-2.307-1.25-2.756-1.491a16.7,16.7,0,0,1,4.989-5.233l1.63,2.712a.792.792,0,1,0,1.358-.817h0l-1.63-2.712a16.583,16.583,0,0,1,7.076-1.952v3.142a.792.792,0,1,0,1.584,0h0V408.7a16.566,16.566,0,0,1,6.424,1.621l-1.5,2.768a.793.793,0,0,0,1.4.755l1.5-2.765a16.671,16.671,0,0,1,5.227,5l-2.712,1.63a.792.792,0,0,0,.817,1.358l2.712-1.63a16.556,16.556,0,0,1,1.952,7.076h-3.147a.792.792,0,1,0,0,1.584H314.6a15.494,15.494,0,0,1-1.921,6.792l-2.644-1.534a.794.794,0,0,0-1.206.684.778.778,0,0,0,.411.687l2.972,1.723.037-.486a.793.793,0,0,0,1.469.47,17.184,17.184,0,0,0,2.487-8.969.878.878,0,0,0,0-.315,18.13,18.13,0,0,0-2.542-9.121.747.747,0,0,0-.09-.164h0l-.006-.006a18.315,18.315,0,0,0-6.789-6.5.834.834,0,0,0-.22-.118,18.106,18.106,0,0,0-8.408-2.145A.781.781,0,0,0,297.994,407.076Z" fill="#252d38"></path><path id="Контур_6" data-name="Контур 6" d="M307.823,419.505a.793.793,0,0,0-.665-.4h0a.786.786,0,0,0-.43.118l-7.212,4.262a2.339,2.339,0,0,0-1.509-.563,2.375,2.375,0,1,0,2.375,2.375,2.512,2.512,0,0,0-.046-.458l7.2-4.256A.792.792,0,0,0,307.823,419.505ZM298,426.092a.792.792,0,0,1,0-1.584h0a.77.77,0,0,1,.6.288.714.714,0,0,0,.136.226.8.8,0,0,1,.053.278A.792.792,0,0,1,298,426.092Z" fill="#dd141f"></path><path id="Контур_7" data-name="Контур 7" d="M293.251,431.634a.792.792,0,1,0,0,1.584h9.5a.792.792,0,1,0,0-1.584h-9.5Z" fill="#dd141f"></path></g></svg> 