<?xml version="1.0" encoding="UTF-8"?> <svg xmlns="http://www.w3.org/2000/svg" width="36.066" height="35.925" viewBox="0 0 36.066 35.925"><g id="Сгруппировать_35" data-name="Сгруппировать 35" transform="translate(-151.07 -708.003)"><path id="Контур_12" data-name="Контур 12" d="M185.008,722.926c2.936-7.869-3.378-2.8-2.531-8.425-.383-3.163-4.07-.857-5.055-3.675-1.458-3.582-4.526-.013-5.668-1.145a2.932,2.932,0,0,0-4.822-.69c-1.261,2.771-4.638-2.421-6.352,2.3-.114,3.112-5.28-1.263-4.9,4.9.266.212-.09.975-.46,1-.1.2-1.07.169-1.154.385-1.88.518-2.064,2.607-1.3,4.139,1.833,1.855-4.47,3.115-.153,6.732,1.838.835-2.7,4.719,1.76,5.9.164.279,1.205.04,1.226.613.2,1.308-.238,4.135,2.218,4.369.458.019,2.284-.28,2.527.306a3.781,3.781,0,0,0,2.07,2.983c3.706.321,2.264-2.487,5.513,1,2.7,1.564,3.578-3.116,5.744-1.3a2.444,2.444,0,0,0,1.759.307c1.88-.169,1.8-2.035,2.682-3.294,2.52.353,4.949-.667,4.366-3.605-.649-2.034,5.43-1,2.755-5.744C184.3,727.193,190.115,727.262,185.008,722.926Zm.077,3.756h-.153l-.077.153H184.7l-.306.383a.263.263,0,0,0-.306.306l-.306.23v.153h-.077l-.153.459h-.077v.306H183.4a3.578,3.578,0,0,0,.077,1.3h.077l.153.689h.077v.153h.077v.153c.2-.018.324.651.383.766h.077l-.077.459h-.077v.153l-.23.153v.077l-1.072.306v.077h-.23v.077h-.153v.077l-.383.077-.077.153h-.153l-.153.23a.261.261,0,0,0-.306.3c-.639.489-.607,1.545-.613,2.3h.077c.384,1.274-.506,1.8-1.686,1.536v-.077h-.613v.075l-.842.077v.077h-.153v.077h-.23l-.077.153h-.153a2.441,2.441,0,0,1-.612.613v.153l-.153.077v.153h-.077l-.077.306h-.077l-.153.689h-.077c.094.991-.96,1.241-1.685.766v-.077c-.367-.139-1.517-.663-1.914-.536v-.077h-.077v.077h-.459v.077h-.23v.077c-.262-.047-1.038.7-1.225.843v.157l-.459.383v.149h-.077c-.063.247-.219.134-.383.306h-.613c-.164-.172-.321-.059-.383-.306h-.077v-.153l-.613-.536v-.15c-.385-.075-.265-.425-.61-.381l-.077-.153h-.153v-.077l-.306-.077v-.077h-.306v-.077c-1.389-.5-3.108,1.854-3.9.23h-.077v-.23h-.077V740h-.077l-.077-.459h-.077l-.077-.383H161.8l-.077-.306h-.077V738.7l-.153-.077v-.144c-.1-.063-.546-.548-.689-.459v-.077l-.306-.077v-.077a12.518,12.518,0,0,0-2.756-.077,1.691,1.691,0,0,0-.383-.306l-.077-.383h-.077l.077-1h.078v-.618h-.077v-.536h-.077v-.306h-.077l-.153-.459H156.9v-.153a2.476,2.476,0,0,1-.613-.612h-.153c0-.183-.416-.257-.536-.306v-.077h-.23v-.077c-.528-.21-1.217-.114-1.378-.689h-.077a1.382,1.382,0,0,1,.077-.842h.077V731.2h.08v-.153a3.077,3.077,0,0,0,.612-2.3h-.077v-.306h-.077l-.077-.306h-.077v-.153l-.153-.077v-.153l-.23-.153v-.153c-.1-.071-.364-.249-.383-.383h-.153l-.306-.383h-.153V726.6c-.211-.06-.294-.339-.308-.531h-.077c-.028-.586.182-.54.383-.919h.153l.23-.306h.153c.086-.1.4-.523.536-.536v-.153c.221-.055.334-.424.383-.612h.077v-.153h.076v-.306h.078a7.051,7.051,0,0,0-.077-1.306H154.6v-.23h-.074V721.4h-.077v-.23h-.077l-.077-.306h-.077v-.153l-.153-.077-.077-.306h-.077v-.3h-.077v-.077h.081c-.125-.657.733-.886,1.225-.918v-.08l.456-.071V718.8l.306-.077v-.077h.152l.077-.153h.144a2.527,2.527,0,0,1,.613-.612v-.153h.077c.881-1.033-.474-3.3.995-3.6v-.077a.2.2,0,0,1,.23.077h1v.077h.306v-.077h.689v-.081l.459-.077v-.077c.131.087.667-.4.766-.459v-.153c.221-.055.336-.428.386-.616h.077l.077-.459h.077v-.153h.077c.07-.595.417-1.461,1.153-1.375v.076h.23v.074h.153v.081h.15a3.3,3.3,0,0,0,2.91.535v-.077c.648-.1.926-.833,1.454-1.149-.054-.324.4-.362.536-.612a1.32,1.32,0,0,1,1.225.383v.153c.82.783,1.643,1.726,2.909,1.455v-.077h.23v-.077h.23v-.077h.23v-.077h.153v-.077h.23v-.077h.153v-.077h.154v-.077l.459-.153v-.07c.3-.023.859-.024,1.072.23.227,2.757,2.434,3.446,4.751,3.14v.069c.258-.04.334.22.383.459h.077l-.077,1H180.8v.842h.077v.536h.077l.077.459h.077v.153l.153.077v.153a2.527,2.527,0,0,1,.613.612h.153v.077l.459.153v.076h.23v.077h.23v.077h.153v.077c.567,0,1.3.424,1.225,1.073h-.077v.23h-.077v.151h-.077v.153c-.2-.018-.325.651-.383.766h-.077v.15h-.077c-.18.9-.334,2.069.536,2.68v.157l.23.153v.078h.153c.1.139.336.465.536.46v.077l.23.153v.153l.153.077v.23h.077A1.106,1.106,0,0,1,185.085,726.682Z" fill="#333b48" fill-rule="evenodd"></path><path id="Контур_13" data-name="Контур 13" d="M180.26,723.772c-3.185-15.283-26.417-10.1-22.061,5.741C162.678,742.486,182.654,738.106,180.26,723.772Zm-1.461,3.135c-1.259,12.749-21.153,11.1-19.372-2.6C161.267,712.376,179.885,714.027,178.8,726.907Z" fill="#333b48" fill-rule="evenodd"></path><path id="Контур_14" data-name="Контур 14" d="M173.672,721.854c2.386.024.173,2.191-.537,2.834-1.322,1.148-4.034,4.252-5.437,5.207v.077h-.536c-.973-.9-2.856-2.78-3.755-3.752l.077-.766a1.637,1.637,0,0,0,.383-.306h.613c.716.531,2.28,2.512,3.063,2.834C169.307,726.235,171.843,723.55,173.672,721.854Z" fill="#fb1c1d" fill-rule="evenodd"></path></g></svg> 