<?xml version="1.0" encoding="UTF-8"?> <svg xmlns="http://www.w3.org/2000/svg" width="144" height="27.738" viewBox="0 0 144 27.738"><g id="Сгруппировать_53" data-name="Сгруппировать 53" transform="translate(-70.009 -77.386)"><path id="Контур_20" data-name="Контур 20" d="M87.98,87.622c-2.257-.411-5.166-.331-7.721-.517a1.226,1.226,0,0,1-1.2-1.234,1.3,1.3,0,0,1,.927-1.112c1.271-.521,7.012-1.362,13.16,2.212l1.556-6.8a25.774,25.774,0,0,0-11.709-2.785c-4.548,0-12.143,2.377-12.143,8.611,0,8.726,14.444,8.262,16.061,8.329.906.037,1.209.482,1.247,1.038.026.37-.025.978-1.084,1.5-.958.381-1.959.738-5.146.407-4.4-.456-10.149-3.595-10.149-3.595l-1.766,7.584s7.594,3.869,13.851,3.869c11.077,0,12.925-7.074,12.413-10.683C95.7,90.437,92.583,88.459,87.98,87.622Z" fill="#cc1c1c" fill-rule="evenodd"></path><path id="Контур_21" data-name="Контур 21" d="M178.152,79.917,174.6,95.035l-3.532-15.118h-7.646l-3.535,15.118L156.35,79.917h-8.2l7.36,26.142h8.5l3.238-13.653,3.233,13.653h8.507l7.356-26.142Z" transform="translate(-53.424 -1.73)" fill="#cc1c1c" fill-rule="evenodd"></path><path id="Контур_22" data-name="Контур 22" d="M383.411,106.066l-5.782-9.078c.017-.007.031-.017.045-.024.047-.028.09-.055.138-.085.2-.121.4-.257.59-.4.033-.024.067-.045.1-.071.224-.175.443-.35.649-.547h0l.046-.047.011-.01a9,9,0,0,0,2.756-6.332V88.76a9,9,0,0,0-2.756-6.331l-.011-.006-.046-.049,0,0a9.634,9.634,0,0,0-6.8-2.44H357.934v26.135h8.21V98.3l3.749,0,4.946,7.765ZM366.144,91.913h0v-5.6h5.65a1.787,1.787,0,0,1,1.4.672,4.029,4.029,0,0,1,0,4.251,1.8,1.8,0,0,1-1.4.673h-5.65Z" transform="translate(-196.854 -1.74)" fill="#cc1c1c" fill-rule="evenodd"></path><path id="Контур_23" data-name="Контур 23" d="M292.177,90.73a13.11,13.11,0,0,0-13.193-13.318V77.4h-2.021v.01A13.11,13.11,0,0,0,263.771,90.73l-.007.537v0l.007.538a13.106,13.106,0,0,0,13.192,13.314v.013h2.021v-.013a13.105,13.105,0,0,0,13.193-13.314l.009-.538v0l-.009-.537Zm-8.17.54h0c-.028,2.323-.288,3.929-1.408,5.165a5.485,5.485,0,0,1-3.62,1.6v.012h-2.008v-.012a5.482,5.482,0,0,1-3.618-1.6c-1.12-1.235-1.383-2.842-1.411-5.165v0c.029-2.322.291-3.929,1.411-5.168a5.518,5.518,0,0,1,3.618-1.595v-.01h2.008v.01A5.521,5.521,0,0,1,282.6,86.1c1.12,1.238,1.38,2.846,1.408,5.168Z" transform="translate(-132.47 -0.011)" fill="#cc1c1c" fill-rule="evenodd"></path><path id="Контур_24" data-name="Контур 24" d="M468.876,92.483h-.021a12.953,12.953,0,0,0-13.179-12.526v-.012l-12.89,0V106.07h12.89v-.011a12.954,12.954,0,0,0,13.179-12.526h.021l-.008-.524.008-.525Zm-9.59,5.484h0a5.336,5.336,0,0,1-3.617,1.7v.012H451V86.333h4.672v.009a5.355,5.355,0,0,1,3.617,1.7c1.037,1.22,1.334,2.781,1.4,4.962C460.62,95.186,460.324,96.749,459.286,97.967Z" transform="translate(-254.867 -1.75)" fill="#cc1c1c" fill-rule="evenodd"></path></g></svg> 